<svg xmlns="http://www.w3.org/2000/svg" viewBox="0 0 1570 1085" preserveAspectRatio="xMidYMid" width="1570" height="1085" xmlns:xlink="http://www.w3.org/1999/xlink" style="shape-rendering:auto;display:block;background-position-x:0%;background-position-y:0%;background-size:auto;background-origin:padding-box;background-clip:border-box;background:scroll rgba(0, 0, 0, 0) none  repeat;width:1570px;height:1085px;;animation:none"><g><linearGradient y2="0" y1="0" x2="1" x1="0" id="lg-z7bsp91q5xd"><stop offset="0" stop-color="#163af5"></stop>

  
<stop offset="1" stop-color="#00ffff"></stop></linearGradient>
<path opacity="0.4" fill="url(#lg-z7bsp91q5xd)" d="M 0 0 L 0 776.06 Q 157 548.95 314 519.99 T 628 406.75 T 942 423.5 T 1256 329.7 T 1570 173.93 L 1570 0 Z" style="fill:url('#lg-z7bsp91q5xd');opacity:0.4;;animation:none"></path>
<path opacity="0.4" fill="url(#lg-z7bsp91q5xd)" d="M 0 0 L 0 644.808 Q 157 614.464 314 569.748 T 628 507.696 T 942 465.19 T 1256 409.71 T 1570 206.648 L 1570 0 Z" style="fill:url('#lg-z7bsp91q5xd');opacity:0.4;;animation:none"></path>
<path opacity="0.4" fill="url(#lg-z7bsp91q5xd)" d="M 0 0 L 0 659.355 Q 157 638 314 613.18 T 628 548.16 T 942 409.225 T 1256 308.425 T 1570 298.615 L 1570 0 Z" style="fill:url('#lg-z7bsp91q5xd');opacity:0.4;;animation:none"></path>
<path opacity="0.4" fill="url(#lg-z7bsp91q5xd)" d="M 0 0 L 0 743.455 Q 157 748.971 314 706.328 T 628 463.562 T 942 416.2 T 1256 289.271 T 1570 345.807 L 1570 0 Z" style="fill:url('#lg-z7bsp91q5xd');opacity:0.4;;animation:none"></path>
<g></g></g><!-- [ldio] generated by https://loading.io --></svg>