<svg width="187" height="60" viewBox="0 0 187 60" fill="none" xmlns="http://www.w3.org/2000/svg">
<path d="M17.5331 1.33316C16.0664 1.99983 11.7998 5.73316 7.9331 9.99983C0.333105 18.2665 -0.866896 23.1998 3.39977 27.0665C6.86644 30.2665 10.8664 29.8665 15.6664 25.8665L19.7998 22.2665L26.3331 29.5998C40.0664 45.0665 61.6664 55.8665 84.5998 58.7998C111.933 62.2665 141.266 51.7332 161.666 31.0665L169.666 22.9332L172.6 26.1332C177.8 31.9998 186.333 28.7998 186.333 21.0665C186.333 17.0665 177.133 4.13316 172.6 1.73316C167.666 -0.800175 164.333 0.93316 158.6 9.06649C147.533 24.7998 135.266 33.8665 117.8 39.4665C97.9331 45.7332 76.4664 43.7332 58.3331 33.7332C47.3998 27.7332 42.1998 23.1998 32.5998 11.1998C24.7331 1.33316 22.1998 -0.26684 17.5331 1.33316Z" fill="white"/>
</svg>
